<svg width="160" height="160" viewBox="0 0 160 160" version="1.1" xmlns="http://www.w3.org/2000/svg" xmlns:xlink="http://www.w3.org/1999/xlink">
<title>Component</title>
<desc>Created using Figma</desc>
<g id="Canvas" transform="translate(131 114)">
<g id="Component">
<g id="Ellipse">
<mask id="mask0_outline_ins">
<use xlink:href="#path0_fill" fill="white" transform="translate(-131 -114)"/>
</mask>
<g mask="url(#mask0_outline_ins)">
<use xlink:href="#path1_stroke_2x" transform="translate(-131 -114)"/>
</g>
</g>
<g id="Vector">
<use xlink:href="#path2_stroke" transform="translate(-78 -72)"/>
</g>
</g>
</g>
<defs>
<path id="path0_fill" d="M 160 80C 160 124.183 124.183 160 80 160C 35.8172 160 0 124.183 0 80C 0 35.8172 35.8172 0 80 0C 124.183 0 160 35.8172 160 80Z"/>
<path id="path1_stroke_2x" d="M 155 80C 155 121.421 121.421 155 80 155L 80 165C 126.944 165 165 126.944 165 80L 155 80ZM 80 155C 38.5786 155 5 121.421 5 80L -5 80C -5 126.944 33.0558 165 80 165L 80 155ZM 5 80C 5 38.5786 38.5786 5 80 5L 80 -5C 33.0558 -5 -5 33.0558 -5 80L 5 80ZM 80 5C 121.421 5 155 38.5786 155 80L 165 80C 165 33.0558 126.944 -5 80 -5L 80 5Z"/>
<path id="path2_stroke" d="M -2.12154 75.6775C -2.85195 76.8492 -2.49422 78.3911 -1.32252 79.1215C -0.150824 79.852 1.39113 79.4942 2.12154 78.3225L -2.12154 75.6775ZM 48 0L 50.5 0C 50.5 -1.11582 49.7606 -2.09654 48.6878 -2.40352C 47.615 -2.71051 46.4687 -2.26942 45.8785 -1.32252L 48 0ZM 45.5 77C 45.5 78.3807 46.6193 79.5 48 79.5C 49.3807 79.5 50.5 78.3807 50.5 77L 45.5 77ZM 2.12154 78.3225L 50.1215 1.32252L 45.8785 -1.32252L -2.12154 75.6775L 2.12154 78.3225ZM 45.5 0L 45.5 77L 50.5 77L 50.5 0L 45.5 0Z"/>
</defs>
</svg>
