<svg width="726" height="726" viewBox="0 0 726 726" fill="none" xmlns="http://www.w3.org/2000/svg">
<circle cx="363" cy="363" r="363" fill="white"/>
<path d="M531.38 530.33L443.22 340.19L527.99 340.36C546.18 340.36 560.11 336.28 569.34 328.23C579.91 319.02 585.27 303.46 585.27 281.98C585.27 243.24 565.99 223.6 527.97 223.6H388.77L374.51 192.99H527.97C582.66 192.99 615.32 226.26 615.32 281.98C615.32 312.81 606.42 336.2 588.88 351.49C574.05 364.41 553.56 370.97 527.97 370.97L490.98 371.61L564.59 530.45L531.38 530.33Z" fill="black"/>
<path d="M575.54 537.46L526.9 537.31L432.24 333.16L527.99 333.35C544.44 333.35 556.8 329.85 564.72 322.95C573.7 315.13 578.25 301.34 578.25 281.97C578.25 246.92 562.27 230.59 527.95 230.59H384.28L363.5 185.98H527.95C556.71 185.98 580.63 194.87 597.13 211.67C613.59 228.44 622.3 252.75 622.3 281.96C622.3 314.91 612.6 340.07 593.46 356.75C577.33 370.81 555.31 377.94 528.01 377.95L501.83 378.4L575.54 537.46ZM535.85 523.34L553.59 523.39L480.09 364.78L527.96 363.96C551.81 363.96 570.75 357.99 584.27 346.21C600.22 332.31 608.31 310.7 608.31 281.98C608.31 256.51 600.99 235.6 587.15 221.5C573.34 207.43 552.88 200 527.96 200H385.47L393.21 216.61H527.95C570.02 216.61 592.25 239.22 592.25 281.99C592.25 305.58 586.08 322.92 573.92 333.52C563.38 342.71 547.92 347.37 527.97 347.37L454.17 347.22L535.85 523.34Z" fill="black"/>
<path d="M105.44 521.65L254.5 201.7" stroke="black" stroke-width="14" stroke-miterlimit="10"/>
<path d="M117.83 530.38H84.93L240.98 195.41L268.02 207.99L117.83 530.38Z" fill="black"/>
<path d="M122.26 537.33H74.02L237.61 186.18L277.25 204.63L122.26 537.33ZM95.83 523.44H113.4L258.79 211.36L244.35 204.64L95.83 523.44Z" fill="black"/>
<path d="M403.56 521.65L254.5 201.7" stroke="black" stroke-width="14" stroke-miterlimit="10"/>
<path d="M392.03 530.28L241.89 207.99L268.92 195.41L424.98 530.38L392.03 530.28Z" fill="black"/>
<path d="M435.9 537.37L387.6 537.22L232.65 204.63L272.29 186.18L435.9 537.37ZM396.47 523.35L414.06 523.4L265.56 204.64L251.12 211.36L396.47 523.35Z" fill="black"/>
<path d="M272.29 186.18H237.62V209.53H272.29V186.18Z" fill="black"/>
</svg>
