<?xml version="1.0" encoding="utf-8"?>
<!-- Generator: Adobe Illustrator 24.1.2, SVG Export Plug-In . SVG Version: 6.00 Build 0)  -->
<svg version="1.1" xmlns="http://www.w3.org/2000/svg" xmlns:xlink="http://www.w3.org/1999/xlink" x="0px" y="0px"
	 viewBox="0 0 600 600" style="enable-background:new 0 0 600 600;" xml:space="preserve">
<style type="text/css">
	.st0{display:none;}
	.st1{display:inline;opacity:0.41;fill:none;stroke:#000000;stroke-width:33;stroke-miterlimit:10;}
	.st2{display:inline;opacity:0.43;}
	.st3{display:inline;fill:#FFFFFF;}
	.st4{stroke:#000000;stroke-width:14;stroke-miterlimit:10;}
</style>
<g id="Layer_2">
	<g>
		<path d="M481.38,468.33l-88.16-190.14l84.77,0.17c18.19,0,32.12-4.08,41.35-12.13c10.57-9.21,15.93-24.77,15.93-46.25
			c0-38.74-19.28-58.38-57.3-58.38l-139.2,0l-14.26-30.61h153.46c54.69,0,87.35,33.27,87.35,88.99c0,30.83-8.9,54.22-26.44,69.51
			c-14.83,12.92-35.32,19.48-60.91,19.48l-36.99,0.64l73.61,158.84L481.38,468.33z"/>
		<path d="M525.54,475.46l-48.64-0.15l-94.66-204.15l95.75,0.19c16.45,0,28.81-3.5,36.73-10.4c8.98-7.82,13.53-21.61,13.53-40.98
			c0-35.05-15.98-51.38-50.3-51.38l-143.67,0l-20.78-44.61h164.45c28.76,0,52.68,8.89,69.18,25.69
			c16.46,16.77,25.17,41.08,25.17,70.29c0,32.95-9.7,58.11-28.84,74.79c-16.13,14.06-38.15,21.19-65.45,21.2l-26.18,0.45
			L525.54,475.46z M485.85,461.34l17.74,0.05l-73.5-158.61l47.87-0.82c23.85,0,42.79-5.97,56.31-17.75
			c15.95-13.9,24.04-35.51,24.04-64.23c0-25.47-7.32-46.38-21.16-60.48c-13.81-14.07-34.27-21.5-59.19-21.5H335.47l7.74,16.61
			l134.74,0c42.07,0,64.3,22.61,64.3,65.38c0,23.59-6.17,40.93-18.33,51.53c-10.54,9.19-26,13.85-45.95,13.85l-73.8-0.15
			L485.85,461.34z"/>
	</g>
	<path d="M575.98,475.82"/>
	<path d="M567.24,456.64"/>
	<g>
		<g>
			<line class="st4" x1="55.44" y1="459.65" x2="204.5" y2="139.7"/>
			<g>
				<polygon points="67.83,468.38 34.93,468.38 190.98,133.41 218.02,145.99 				"/>
				<path d="M72.26,475.33H24.02l163.59-351.15l39.64,18.45L72.26,475.33z M45.83,461.44H63.4l145.39-312.08l-14.44-6.72
					L45.83,461.44z"/>
			</g>
		</g>
		<g>
			<line class="st4" x1="353.56" y1="459.65" x2="204.5" y2="139.7"/>
			<g>
				<polygon points="342.03,468.28 191.89,145.99 218.92,133.41 374.98,468.38 				"/>
				<path d="M385.9,475.37l-48.3-0.15L182.65,142.63l39.64-18.45L385.9,475.37z M346.47,461.35l17.59,0.05l-148.5-318.76
					l-14.44,6.72L346.47,461.35z"/>
			</g>
		</g>
		<rect x="187.62" y="124.18" width="34.67" height="23.35"/>
	</g>
</g>
</svg>
